<svg xmlns="http://www.w3.org/2000/svg" viewBox="0 0 256 256" xmlns:c2pa="http://c2pa.org/manifest"><metadata><c2pa:manifest>AAAWgmp1bWIAAAAeanVtZGMycGEAEQAQgAAAqgA4m3EDYzJwYQAAABZcanVtYgAAAEdqdW1kYzJtYQARABCAAACqADibcQN1cm46YzJwYToxZjllMzcxYy1jYjA0LTQ0ZTYtYmU4Yy1mMTMzODgyNDZhOWQAAAADl2p1bWIAAAApanVtZGMyYXMAEQAQgAAAqgA4m3EDYzJwYS5hc3NlcnRpb25zAAAAALxqdW1iAAAARGp1bWRjYm9yABEAEIAAAKoAOJtxE2MycGEuaW5ncmVkaWVudC52MwAAAAAYYzJzaDpgufvY68QvUzoqhGRfW3UAAABwY2JvcqNpZGM6Zm9ybWF0bWltYWdlL3N2Zyt4bWxqaW5zdGFuY2VJRHgseG1wOmlpZDo3MTE2YWM1ZC02MDYyLTQzMTctOWJhOC03YmY4YWUwMWM4ZTJscmVsYXRpb25zaGlwaHBhcmVudE9mAAAB4mp1bWIAAABBanVtZGNib3IAEQAQgAAAqgA4m3ETYzJwYS5hY3Rpb25zLnYyAAAAABhjMnNoHRT4E4YbU0YmKcVKWMErgAAAAZljYm9yomdhY3Rpb25zgqJmYWN0aW9ua2MycGEub3BlbmVkanBhcmFtZXRlcnOha2luZ3JlZGllbnRzgaJjdXJseC1zZWxmI2p1bWJmPWMycGEuYXNzZXJ0aW9ucy9jMnBhLmluZ3JlZGllbnQudjNkaGFzaFggBjWiko2cBpPoAeCdLIkoluZniWs7gXY0nrPdrsUz1nOkZmFjdGlvbngdY29tLmFudGhyb3BpYy5jbGF1ZGUucHJvdmlkZWRqcGFyYW1ldGVyc6F4H2NvbS5hbnRocm9waWMub3JpZ2luLWNvbmZpZGVuY2VndW5rbm93bmtkZXNjcmlwdGlvbnhmQ2xhdWRlIHByb3ZpZGVkIHRoaXMgZmlsZSBhdCB0aGUgcmVxdWVzdCBvZiBhIHVzZXIgYW5kIG1heSBoYXZlIGNyZWF0ZWQgb3IgbW9kaWZpZWQgdGhlIGZpbGUgY29udGVudHMubXNvZnR3YXJlQWdlbnShZG5hbWVmQ2xhdWRlcmFsbEFjdGlvbnNJbmNsdWRlZPUAAADIanVtYgAAAEBqdW1kY2JvcgARABCAAACqADibcRNjMnBhLmhhc2guZGF0YQAAAAAYYzJzaJ/tifCsrDWvqu7JdWSo/2kAAACAY2JvcqVjYWxnZnNoYTI1NmNwYWRNAAAAAAAAAAAAAAAAAGRoYXNoWCACmRga0VnT7uRbgwcjcBiQKGsPRVLZ9yhB8s5bNdwurmRuYW1lbmp1bWJmIG1hbmlmZXN0amV4Y2x1c2lvbnOBomVzdGFydBh9Zmxlbmd0aBkeBAAAAj5qdW1iAAAAJ2p1bWRjMmNsABEAEIAAAKoAOJtxA2MycGEuY2xhaW0udjIAAAACD2Nib3KlY2FsZ2ZzaGEyNTZpc2lnbmF0dXJleE1zZWxmI2p1bWJmPS9jMnBhL3VybjpjMnBhOjFmOWUzNzFjLWNiMDQtNDRlNi1iZThjLWYxMzM4ODI0NmE5ZC9jMnBhLnNpZ25hdHVyZWppbnN0YW5jZUlEeCx4bXA6aWlkOmY0OWNmYzA3LTFmMGUtNDNhYy1hZDFkLTQxYzI4YTM0MDMwZnJjcmVhdGVkX2Fzc2VydGlvbnODomN1cmx4LXNlbGYjanVtYmY9YzJwYS5hc3NlcnRpb25zL2MycGEuaW5ncmVkaWVudC52M2RoYXNoWCAGNaKSjZwGk+gB4J0siSiW5meJazuBdjSes92uxTPWc6JjdXJseCpzZWxmI2p1bWJmPWMycGEuYXNzZXJ0aW9ucy9jMnBhLmFjdGlvbnMudjJkaGFzaFgghNLd3Cv0/nqwWcPB+Ci7Vnut7Kpmj+rsUiLQISdu4x+iY3VybHgpc2VsZiNqdW1iZj1jMnBhLmFzc2VydGlvbnMvYzJwYS5oYXNoLmRhdGFkaGFzaFgg7IleTjjXZfL94G/EuYleSqGtLEyNJthmMVV2OC3zPU10Y2xhaW1fZ2VuZXJhdG9yX2luZm+jZG5hbWVvQW50aHJvcGljIEZpbGVzZ3ZlcnNpb25lMS4wLjBrc3BlY1ZlcnNpb25lMi40LjAAABA4anVtYgAAAChqdW1kYzJjcwARABCAAACqADibcQNjMnBhLnNpZ25hdHVyZQAAABAIY2JvctKEWQISogEmGCFZAgowggIGMIIBjaADAgECAhRA5aAK7sI50L64g/oGQgU9Z1UTADAKBggqhkjOPQQDAzBJMRcwFQYDVQQKEw5BbnRocm9waWMsIFBCQzEuMCwGA1UEAxMlQW50aHJvcGljIENvbnRlbnQgQ3JlZGVudGlhbHMgUm9vdCBDQTAeFw0yNjA4MDcxODQzNTZaFw0yODA4MDYxOTQzNTZaMEQxFzAVBgNVBAoTDkFudGhyb3BpYywgUEJDMSkwJwYDVQQDEyBBbnRocm9waWMgQ2xhdWRlIENvbnRlbnQgU2lnbmluZzBZMBMGByqGSM49AgEGCCqGSM49AwEHA0IABJh6CmvLUBgFFNU0vUKlOVtE6djd17L5SuwX0LemFisBM3dkd/3cyjxFA3Qo5S46fX0/ihY0VZ7mfb9KF703t5OjWDBWMA4GA1UdDwEB/wQEAwIHgDAVBgNVHSUEDjAMBgorBgEEAYPoXgIBMAwGA1UdEwEB/wQCMAAwHwYDVR0jBBgwFoAUzlHiBIFOZFsj+OPEz5o+nMHXXMIwCgYIKoZIzj0EAwMDZwAwZAIwMXMdFJ4BetLLVY7ORuE9noqbbAZOZn/aArXyTwFAZfKrPzxF2vPoJNf1+UCdg1XGAjBwX1zd9WGqYkqmL5SFqw1QySjr1zJfpJM9+1rdDwSPLMOPOjKuiXjoU/pUUeG9RwmhY3BhZFkNngAAAAAAAAAAAAAAAAAAAAAAAAAAAAAAAAAAAAAAAAAAAAAAAAAAAAAAAAAAAAAAAAAAAAAAAAAAAAAAAAAAAAAAAAAAAAAAAAAAAAAAAAAAAAAAAAAAAAAAAAAAAAAAAAAAAAAAAAAAAAAAAAAAAAAAAAAAAAAAAAAAAAAAAAAAAAAAAAAAAAAAAAAAAAAAAAAAAAAAAAAAAAAAAAAAAAAAAAAAAAAAAAAAAAAAAAAAAAAAAAAAAAAAAAAAAAAAAAAAAAAAAAAAAAAAAAAAAAAAAAAAAAAAAAAAAAAAAAAAAAAAAAAAAAAAAAAAAAAAAAAAAAAAAAAAAAAAAAAAAAAAAAAAAAAAAAAAAAAAAAAAAAAAAAAAAAAAAAAAAAAAAAAAAAAAAAAAAAAAAAAAAAAAAAAAAAAAAAAAAAAAAAAAAAAAAAAAAAAAAAAAAAAAAAAAAAAAAAAAAAAAAAAAAAAAAAAAAAAAAAAAAAAAAAAAAAAAAAAAAAAAAAAAAAAAAAAAAAAAAAAAAAAAAAAAAAAAAAAAAAAAAAAAAAAAAAAAAAAAAAAAAAAAAAAAAAAAAAAAAAAAAAAAAAAAAAAAAAAAAAAAAAAAAAAAAAAAAAAAAAAAAAAAAAAAAAAAAAAAAAAAAAAAAAAAAAAAAAAAAAAAAAAAAAAAAAAAAAAAAAAAAAAAAAAAAAAAAAAAAAAAAAAAAAAAAAAAAAAAAAAAAAAAAAAAAAAAAAAAAAAAAAAAAAAAAAAAAAAAAAAAAAAAAAAAAAAAAAAAAAAAAAAAAAAAAAAAAAAAAAAAAAAAAAAAAAAAAAAAAAAAAAAAAAAAAAAAAAAAAAAAAAAAAAAAAAAAAAAAAAAAAAAAAAAAAAAAAAAAAAAAAAAAAAAAAAAAAAAAAAAAAAAAAAAAAAAAAAAAAAAAAAAAAAAAAAAAAAAAAAAAAAAAAAAAAAAAAAAAAAAAAAAAAAAAAAAAAAAAAAAAAAAAAAAAAAAAAAAAAAAAAAAAAAAAAAAAAAAAAAAAAAAAAAAAAAAAAAAAAAAAAAAAAAAAAAAAAAAAAAAAAAAAAAAAAAAAAAAAAAAAAAAAAAAAAAAAAAAAAAAAAAAAAAAAAAAAAAAAAAAAAAAAAAAAAAAAAAAAAAAAAAAAAAAAAAAAAAAAAAAAAAAAAAAAAAAAAAAAAAAAAAAAAAAAAAAAAAAAAAAAAAAAAAAAAAAAAAAAAAAAAAAAAAAAAAAAAAAAAAAAAAAAAAAAAAAAAAAAAAAAAAAAAAAAAAAAAAAAAAAAAAAAAAAAAAAAAAAAAAAAAAAAAAAAAAAAAAAAAAAAAAAAAAAAAAAAAAAAAAAAAAAAAAAAAAAAAAAAAAAAAAAAAAAAAAAAAAAAAAAAAAAAAAAAAAAAAAAAAAAAAAAAAAAAAAAAAAAAAAAAAAAAAAAAAAAAAAAAAAAAAAAAAAAAAAAAAAAAAAAAAAAAAAAAAAAAAAAAAAAAAAAAAAAAAAAAAAAAAAAAAAAAAAAAAAAAAAAAAAAAAAAAAAAAAAAAAAAAAAAAAAAAAAAAAAAAAAAAAAAAAAAAAAAAAAAAAAAAAAAAAAAAAAAAAAAAAAAAAAAAAAAAAAAAAAAAAAAAAAAAAAAAAAAAAAAAAAAAAAAAAAAAAAAAAAAAAAAAAAAAAAAAAAAAAAAAAAAAAAAAAAAAAAAAAAAAAAAAAAAAAAAAAAAAAAAAAAAAAAAAAAAAAAAAAAAAAAAAAAAAAAAAAAAAAAAAAAAAAAAAAAAAAAAAAAAAAAAAAAAAAAAAAAAAAAAAAAAAAAAAAAAAAAAAAAAAAAAAAAAAAAAAAAAAAAAAAAAAAAAAAAAAAAAAAAAAAAAAAAAAAAAAAAAAAAAAAAAAAAAAAAAAAAAAAAAAAAAAAAAAAAAAAAAAAAAAAAAAAAAAAAAAAAAAAAAAAAAAAAAAAAAAAAAAAAAAAAAAAAAAAAAAAAAAAAAAAAAAAAAAAAAAAAAAAAAAAAAAAAAAAAAAAAAAAAAAAAAAAAAAAAAAAAAAAAAAAAAAAAAAAAAAAAAAAAAAAAAAAAAAAAAAAAAAAAAAAAAAAAAAAAAAAAAAAAAAAAAAAAAAAAAAAAAAAAAAAAAAAAAAAAAAAAAAAAAAAAAAAAAAAAAAAAAAAAAAAAAAAAAAAAAAAAAAAAAAAAAAAAAAAAAAAAAAAAAAAAAAAAAAAAAAAAAAAAAAAAAAAAAAAAAAAAAAAAAAAAAAAAAAAAAAAAAAAAAAAAAAAAAAAAAAAAAAAAAAAAAAAAAAAAAAAAAAAAAAAAAAAAAAAAAAAAAAAAAAAAAAAAAAAAAAAAAAAAAAAAAAAAAAAAAAAAAAAAAAAAAAAAAAAAAAAAAAAAAAAAAAAAAAAAAAAAAAAAAAAAAAAAAAAAAAAAAAAAAAAAAAAAAAAAAAAAAAAAAAAAAAAAAAAAAAAAAAAAAAAAAAAAAAAAAAAAAAAAAAAAAAAAAAAAAAAAAAAAAAAAAAAAAAAAAAAAAAAAAAAAAAAAAAAAAAAAAAAAAAAAAAAAAAAAAAAAAAAAAAAAAAAAAAAAAAAAAAAAAAAAAAAAAAAAAAAAAAAAAAAAAAAAAAAAAAAAAAAAAAAAAAAAAAAAAAAAAAAAAAAAAAAAAAAAAAAAAAAAAAAAAAAAAAAAAAAAAAAAAAAAAAAAAAAAAAAAAAAAAAAAAAAAAAAAAAAAAAAAAAAAAAAAAAAAAAAAAAAAAAAAAAAAAAAAAAAAAAAAAAAAAAAAAAAAAAAAAAAAAAAAAAAAAAAAAAAAAAAAAAAAAAAAAAAAAAAAAAAAAAAAAAAAAAAAAAAAAAAAAAAAAAAAAAAAAAAAAAAAAAAAAAAAAAAAAAAAAAAAAAAAAAAAAAAAAAAAAAAAAAAAAAAAAAAAAAAAAAAAAAAAAAAAAAAAAAAAAAAAAAAAAAAAAAAAAAAAAAAAAAAAAAAAAAAAAAAAAAAAAAAAAAAAAAAAAAAAAAAAAAAAAAAAAAAAAAAAAAAAAAAAAAAAAAAAAAAAAAAAAAAAAAAAAAAAAAAAAAAAAAAAAAAAAAAAAAAAAAAAAAAAAAAAAAAAAAAAAAAAAAAAAAAAAAAAAAAAAAAAAAAAAAAAAAAAAAAAAAAAAAAAAAAAAAAAAAAAAAAAAAAAAAAAAAAAAAAAAAAAAAAAAAAAAAAAAAAAAAAAAAAAAAAAAAAAAAAAAAAAAAAAAAAAAAAAAAAAAAAAAAAAAAAAAAAAAAAAAAAAAAAAAAAAAAAAAAAAAAAAAAAAAAAAAAAAAAAAAAAAAAAAAAAAAAAAAAAAAAAAAAAAAAAAAAAAAAAAAAAAAAAAAAAAAAAAAAAAAAAAAAAAAAAAAAAAAAAAAAAAAAAAAAAAAAAAAAAAAAAAAAAAAAAAAAAAAAAAAAAAAAAAAAAAAAAAAAAAAAAAAAAAAAAAAAAAAAAAAAAAAAAAAAAAAAAAAAAAAAAAAAAAAAAAAAAAAAAAAAAAAAAAAAAAAAAAAAAAAAAAAAAAAAAAAAAAAAAAAAAAAAAAAAAAAAAAAAAAAAAAAAAAAAAAAAAAAAAAAAAAAAAAAAAAAAAAAAAAAAAAAAAAAAAAAAAAAAAAAAAAAAAAAAAAAAAAAAAAAAAAAAAAAAAAAAAAAAAAAAAAAAAAAAAAAAAAAAAAAAAAAAAAAAAAAAAAAAAAAAAAAAAAAAAAAAAAAAAAAAAAAAAAAAAAAAAAAAAAAAAAAAAAAAAAAAAAAAAAAAAAAAAAAAAAAAAAAAAAAAAAAAAAAAAAAAAAAAAAAAAAAAAAAAAAAAAAAAAAAAAAAAAAAAAAAAAAAAAAAAAAAAAAAAAAAAAAAAAAAAAAAAAAAAAAAAAAAAAAAAAAAAAAAAAAAAAAAAAAAAAAAAAAAAAAAAAAAAAAAAAAAAAAAAAAAAAAAAAAAAAAAAAAAAAAAAAAAAAAAAAAAAAAAAAAAAAAAAAAAAAAAAAAAAAAAAAAAAAAAAAAAAAAAAAAAAAAAAAAAAAAAAAAAAAAAAAAAAAAAAAAAAAAAAAAAAAAAAAAAAAAAAAAAAAAAAAAAAAAAAAAAAAAAAAAAAAAAAAAAAAAAAAAAAAAAAAAAAAAAAAAAAAAAAAAAAAAAAAAAAAAAAAAAAAAAAAAAAAAAAAAAAAAAAAAAAAAAAAAAAAAAAAAAAAAAAAAAAAAAAAAAAAAAAAAAAAAAAAAAAAAAAAAAAAAAAAAAAAAAAAAAAAAAAAAAAAAAAAAAAAAAAAAAAAAAAAAAAAAAAAAAAAAAAAAAAAAAAAAAAAAAAAAAAAAAAAAAAAAAAAAAAAAAAAAAAAAAAAAAAAAAAAAAAAAAAAAAAAAAAAAAAAAAAAAAAAAAAAAAAAAAAAAAAAAAAAAAAAAAAAAAAAAAAAAAAAAAAAAAAAAAAAAAAAAAAAAAAAAAAAAAAAAAAAAAAAAAAAAAAAAAAAAAAAAAAAAAAAAAAAAAAAAAAAAAAAAAAAAAAAAAAAAAAAAAAAAAAAAAAAAAAAAAAAAAAAAAAAAAAAAAAAAAAAAAAAAAAAAAAAAAAAAAAAAAAAAAAAAAAAAAAAAAAAAAAAAAAAAAAAAAAAAAAAAAAAAAAAAAAAAAAAAAAAAAAAAAAAAAAAAAAAAAAAAAAAAAAAPZYQN9JPC3sLhJBF9ogh8aprFwn66h4mnlWA/xUm9B5JKhqiLc4FUoshKPl6SKRRXAyKR+5fdaSP3xmTBFgPqSJrGM=</c2pa:manifest></metadata><title>Skill Vault</title><path fill="#7a4b26" d="M56.20 24.77 L52.39 25.72 L48.69 27.04 L45.14 28.72 L41.78 30.74 L38.62 33.08 L35.72 35.72 L33.08 38.62 L30.74 41.78 L28.72 45.14 L27.04 48.69 L25.72 52.39 L24.77 56.20 L24.19 60.08 L24.00 64.00 L24.00 192.00 L24.19 195.92 L24.77 199.80 L25.72 203.61 L27.04 207.31 L28.72 210.86 L30.74 214.22 L33.08 217.38 L35.72 220.28 L38.62 222.92 L41.78 225.26 L45.14 227.28 L48.69 228.96 L52.39 230.28 L56.20 231.23 L60.08 231.81 L64.00 232.00 L192.00 232.00 L195.92 231.81 L199.80 231.23 L203.61 230.28 L207.31 228.96 L210.86 227.28 L214.22 225.26 L217.38 222.92 L220.28 220.28 L222.92 217.38 L225.26 214.22 L227.28 210.86 L228.96 207.31 L230.28 203.61 L231.23 199.80 L231.81 195.92 L232.00 192.00 L232.00 64.00 L231.81 60.08 L231.23 56.20 L230.28 52.39 L228.96 48.69 L227.28 45.14 L225.26 41.78 L222.92 38.62 L220.28 35.72 L217.38 33.08 L214.22 30.74 L210.86 28.72 L207.31 27.04 L203.61 25.72 L199.80 24.77 L195.92 24.19 L192.00 24.00 L64.00 24.00 L60.08 24.19 Z M193.81 48.86 L195.65 49.52 L197.43 50.36 L199.11 51.37 L200.69 52.54 L202.14 53.86 L203.46 55.31 L204.63 56.89 L205.64 58.57 L206.48 60.35 L207.14 62.19 L207.62 64.10 L207.90 66.04 L208.00 68.00 L208.00 188.00 L207.90 189.96 L207.62 191.90 L207.14 193.81 L206.48 195.65 L205.64 197.43 L204.63 199.11 L203.46 200.69 L202.14 202.14 L200.69 203.46 L199.11 204.63 L197.43 205.64 L195.65 206.48 L193.81 207.14 L191.90 207.62 L189.96 207.90 L188.00 208.00 L68.00 208.00 L66.04 207.90 L64.10 207.62 L62.19 207.14 L60.35 206.48 L58.57 205.64 L56.89 204.63 L55.31 203.46 L53.86 202.14 L52.54 200.69 L51.37 199.11 L50.36 197.43 L49.52 195.65 L48.86 193.81 L48.38 191.90 L48.10 189.96 L48.00 188.00 L48.00 68.00 L48.10 66.04 L48.38 64.10 L48.86 62.19 L49.52 60.35 L50.36 58.57 L51.37 56.89 L52.54 55.31 L53.86 53.86 L55.31 52.54 L56.89 51.37 L58.57 50.36 L60.35 49.52 L62.19 48.86 L64.10 48.38 L66.04 48.10 L68.00 48.00 L188.00 48.00 L189.96 48.10 L191.90 48.38 Z M68.63 56.07 L67.27 56.27 L65.94 56.60 L64.64 57.07 L63.40 57.65 L62.22 58.36 L61.12 59.18 L60.10 60.10 L59.18 61.12 L58.36 62.22 L57.65 63.40 L57.07 64.64 L56.60 65.94 L56.27 67.27 L56.07 68.63 L56.00 70.00 L56.00 186.00 L56.07 187.37 L56.27 188.73 L56.60 190.06 L57.07 191.36 L57.65 192.60 L58.36 193.78 L59.18 194.88 L60.10 195.90 L61.12 196.82 L62.22 197.64 L63.40 198.35 L64.64 198.93 L65.94 199.40 L67.27 199.73 L68.63 199.93 L70.00 200.00 L186.00 200.00 L187.37 199.93 L188.73 199.73 L190.06 199.40 L191.36 198.93 L192.60 198.35 L193.78 197.64 L194.88 196.82 L195.90 195.90 L196.82 194.88 L197.64 193.78 L198.35 192.60 L198.93 191.36 L199.40 190.06 L199.73 188.73 L199.93 187.37 L200.00 186.00 L200.00 70.00 L199.93 68.63 L199.73 67.27 L199.40 65.94 L198.93 64.64 L198.35 63.40 L197.64 62.22 L196.82 61.12 L195.90 60.10 L194.88 59.18 L193.78 58.36 L192.60 57.65 L191.36 57.07 L190.06 56.60 L188.73 56.27 L187.37 56.07 L186.00 56.00 L70.00 56.00 Z M152.00 85.76 L152.85 85.80 L153.69 85.93 L154.51 86.13 L155.31 86.42 L156.07 86.78 L156.80 87.22 L157.48 87.72 L158.11 88.29 L158.68 88.92 L159.18 89.60 L159.62 90.33 L159.98 91.09 L160.27 91.89 L160.47 92.71 L160.60 93.55 L160.64 94.40 L160.64 96.32 L160.60 97.17 L160.47 98.01 L160.27 98.83 L159.98 99.63 L159.62 100.39 L159.18 101.12 L158.68 101.80 L158.11 102.43 L157.48 103.00 L156.80 103.50 L156.07 103.94 L155.31 104.30 L154.51 104.59 L153.69 104.79 L152.85 104.92 L152.00 104.96 L110.93 104.96 L110.73 104.97 L110.72 105.17 L110.72 118.19 L110.73 118.39 L110.93 118.40 L155.84 118.40 L156.69 118.44 L157.53 118.57 L158.35 118.77 L159.15 119.06 L159.91 119.42 L160.64 119.86 L161.32 120.36 L161.95 120.93 L162.52 121.56 L163.02 122.24 L163.46 122.97 L163.82 123.73 L164.11 124.53 L164.31 125.35 L164.44 126.19 L164.48 127.04 L164.48 161.60 L164.44 162.45 L164.31 163.29 L164.11 164.11 L163.82 164.91 L163.46 165.67 L163.02 166.40 L162.52 167.08 L161.95 167.71 L161.32 168.28 L160.64 168.78 L159.91 169.22 L159.15 169.58 L158.35 169.87 L157.53 170.07 L156.69 170.20 L155.84 170.24 L104.00 170.24 L103.15 170.20 L102.31 170.07 L101.49 169.87 L100.69 169.58 L99.93 169.22 L99.20 168.78 L98.52 168.28 L97.89 167.71 L97.32 167.08 L96.82 166.40 L96.38 165.67 L96.02 164.91 L95.73 164.11 L95.53 163.29 L95.40 162.45 L95.36 161.60 L95.36 159.68 L95.40 158.83 L95.53 157.99 L95.73 157.17 L96.02 156.37 L96.38 155.61 L96.82 154.88 L97.32 154.20 L97.89 153.57 L98.52 153.00 L99.20 152.50 L99.93 152.06 L100.69 151.70 L101.49 151.41 L102.31 151.21 L103.15 151.08 L104.00 151.04 L145.07 151.04 L145.27 151.03 L145.28 150.83 L145.28 137.81 L145.27 137.61 L145.07 137.60 L100.16 137.60 L99.31 137.56 L98.47 137.43 L97.65 137.23 L96.85 136.94 L96.09 136.58 L95.36 136.14 L94.68 135.64 L94.05 135.07 L93.48 134.44 L92.98 133.76 L92.54 133.03 L92.18 132.27 L91.89 131.47 L91.69 130.65 L91.56 129.81 L91.52 128.96 L91.52 94.40 L91.56 93.55 L91.69 92.71 L91.89 91.89 L92.18 91.09 L92.54 90.33 L92.98 89.60 L93.48 88.92 L94.05 88.29 L94.68 87.72 L95.36 87.22 L96.09 86.78 L96.85 86.42 L97.65 86.13 L98.47 85.93 L99.31 85.80 L100.16 85.76 Z"/><path fill="#eba640" d="M49.00 72.00 L43.00 72.00 L42.51 72.02 L42.02 72.10 L41.55 72.22 L41.09 72.38 L40.64 72.59 L40.22 72.84 L39.83 73.13 L39.46 73.46 L39.13 73.83 L38.84 74.22 L38.59 74.64 L38.38 75.09 L38.22 75.55 L38.10 76.02 L38.02 76.51 L38.00 77.00 L38.00 95.00 L38.02 95.49 L38.10 95.98 L38.22 96.45 L38.38 96.91 L38.59 97.36 L38.84 97.78 L39.13 98.17 L39.46 98.54 L39.83 98.87 L40.22 99.16 L40.64 99.41 L41.09 99.62 L41.55 99.78 L42.02 99.90 L42.51 99.98 L43.00 100.00 L49.00 100.00 L49.49 99.98 L49.98 99.90 L50.45 99.78 L50.91 99.62 L51.36 99.41 L51.78 99.16 L52.17 98.87 L52.54 98.54 L52.87 98.17 L53.16 97.78 L53.41 97.36 L53.62 96.91 L53.78 96.45 L53.90 95.98 L53.98 95.49 L54.00 95.00 L54.00 77.00 L53.98 76.51 L53.90 76.02 L53.78 75.55 L53.62 75.09 L53.41 74.64 L53.16 74.22 L52.87 73.83 L52.54 73.46 L52.17 73.13 L51.78 72.84 L51.36 72.59 L50.91 72.38 L50.45 72.22 L49.98 72.10 L49.49 72.02 Z M49.00 156.00 L43.00 156.00 L42.51 156.02 L42.02 156.10 L41.55 156.22 L41.09 156.38 L40.64 156.59 L40.22 156.84 L39.83 157.13 L39.46 157.46 L39.13 157.83 L38.84 158.22 L38.59 158.64 L38.38 159.09 L38.22 159.55 L38.10 160.02 L38.02 160.51 L38.00 161.00 L38.00 179.00 L38.02 179.49 L38.10 179.98 L38.22 180.45 L38.38 180.91 L38.59 181.36 L38.84 181.78 L39.13 182.17 L39.46 182.54 L39.83 182.87 L40.22 183.16 L40.64 183.41 L41.09 183.62 L41.55 183.78 L42.02 183.90 L42.51 183.98 L43.00 184.00 L49.00 184.00 L49.49 183.98 L49.98 183.90 L50.45 183.78 L50.91 183.62 L51.36 183.41 L51.78 183.16 L52.17 182.87 L52.54 182.54 L52.87 182.17 L53.16 181.78 L53.41 181.36 L53.62 180.91 L53.78 180.45 L53.90 179.98 L53.98 179.49 L54.00 179.00 L54.00 161.00 L53.98 160.51 L53.90 160.02 L53.78 159.55 L53.62 159.09 L53.41 158.64 L53.16 158.22 L52.87 157.83 L52.54 157.46 L52.17 157.13 L51.78 156.84 L51.36 156.59 L50.91 156.38 L50.45 156.22 L49.98 156.10 L49.49 156.02 Z"/><path fill="#eba640" d="M100.16 85.76 L99.31 85.80 L98.47 85.93 L97.65 86.13 L96.85 86.42 L96.09 86.78 L95.36 87.22 L94.68 87.72 L94.05 88.29 L93.48 88.92 L92.98 89.60 L92.54 90.33 L92.18 91.09 L91.89 91.89 L91.69 92.71 L91.56 93.55 L91.52 94.40 L91.52 128.96 L91.56 129.81 L91.69 130.65 L91.89 131.47 L92.18 132.27 L92.54 133.03 L92.98 133.76 L93.48 134.44 L94.05 135.07 L94.68 135.64 L95.36 136.14 L96.09 136.58 L96.85 136.94 L97.65 137.23 L98.47 137.43 L99.31 137.56 L100.16 137.60 L145.07 137.60 L145.27 137.61 L145.28 137.81 L145.28 150.83 L145.27 151.03 L145.07 151.04 L104.00 151.04 L103.15 151.08 L102.31 151.21 L101.49 151.41 L100.69 151.70 L99.93 152.06 L99.20 152.50 L98.52 153.00 L97.89 153.57 L97.32 154.20 L96.82 154.88 L96.38 155.61 L96.02 156.37 L95.73 157.17 L95.53 157.99 L95.40 158.83 L95.36 159.68 L95.36 161.60 L95.40 162.45 L95.53 163.29 L95.73 164.11 L96.02 164.91 L96.38 165.67 L96.82 166.40 L97.32 167.08 L97.89 167.71 L98.52 168.28 L99.20 168.78 L99.93 169.22 L100.69 169.58 L101.49 169.87 L102.31 170.07 L103.15 170.20 L104.00 170.24 L155.84 170.24 L156.69 170.20 L157.53 170.07 L158.35 169.87 L159.15 169.58 L159.91 169.22 L160.64 168.78 L161.32 168.28 L161.95 167.71 L162.52 167.08 L163.02 166.40 L163.46 165.67 L163.82 164.91 L164.11 164.11 L164.31 163.29 L164.44 162.45 L164.48 161.60 L164.48 127.04 L164.44 126.19 L164.31 125.35 L164.11 124.53 L163.82 123.73 L163.46 122.97 L163.02 122.24 L162.52 121.56 L161.95 120.93 L161.32 120.36 L160.64 119.86 L159.91 119.42 L159.15 119.06 L158.35 118.77 L157.53 118.57 L156.69 118.44 L155.84 118.40 L110.93 118.40 L110.73 118.39 L110.72 118.19 L110.72 105.17 L110.73 104.97 L110.93 104.96 L152.00 104.96 L152.85 104.92 L153.69 104.79 L154.51 104.59 L155.31 104.30 L156.07 103.94 L156.80 103.50 L157.48 103.00 L158.11 102.43 L158.68 101.80 L159.18 101.12 L159.62 100.39 L159.98 99.63 L160.27 98.83 L160.47 98.01 L160.60 97.17 L160.64 96.32 L160.64 94.40 L160.60 93.55 L160.47 92.71 L160.27 91.89 L159.98 91.09 L159.62 90.33 L159.18 89.60 L158.68 88.92 L158.11 88.29 L157.48 87.72 L156.80 87.22 L156.07 86.78 L155.31 86.42 L154.51 86.13 L153.69 85.93 L152.85 85.80 L152.00 85.76 Z"/></svg>